<?xml version="1.0" encoding="UTF-8"?>
<svg xmlns="http://www.w3.org/2000/svg" xmlns:xlink="http://www.w3.org/1999/xlink" width="2rem" height="2rem" viewBox="0 0 48 48" version="1.1">
<g id="surface6605395">
<path style=" stroke:none;fill-rule:nonzero;fill:white;fill-opacity:1;" d="M 17.078125 44.960938 C 17.761719 44.667969 18.238281 43.988281 18.238281 43.199219 L 18.238281 38.015625 C 18.238281 37.828125 18.253906 37.628906 18.28125 37.429688 C 18.265625 37.433594 18.253906 37.4375 18.238281 37.441406 C 18.238281 37.441406 15.359375 37.441406 14.785156 37.441406 C 13.34375 37.441406 12.097656 36.863281 11.519531 35.710938 C 10.847656 34.464844 10.558594 32.351562 8.832031 31.199219 C 8.542969 31.007812 8.734375 30.71875 9.3125 30.71875 C 9.886719 30.816406 11.136719 31.585938 11.902344 32.640625 C 12.769531 33.695312 13.632812 34.558594 15.167969 34.558594 C 17.554688 34.558594 18.835938 34.441406 19.605469 34.027344 C 20.5 32.695312 21.742188 31.679688 23.039062 31.679688 L 23.039062 31.65625 C 17.597656 31.480469 14.121094 29.671875 12.503906 26.878906 C 8.984375 26.921875 5.921875 27.269531 4.175781 27.558594 C 4.117188 27.246094 4.070312 26.929688 4.027344 26.609375 C 5.753906 26.328125 8.679688 25.988281 12.039062 25.925781 C 11.933594 25.660156 11.839844 25.390625 11.761719 25.109375 C 8.390625 24.941406 5.480469 25.074219 3.902344 25.203125 C 3.882812 24.886719 3.855469 24.566406 3.851562 24.246094 C 5.433594 24.113281 8.265625 23.984375 11.550781 24.136719 C 11.472656 23.660156 11.425781 23.167969 11.425781 22.65625 C 11.425781 21.023438 12 19.296875 13.058594 17.855469 C 12.578125 16.226562 11.90625 12.769531 13.25 11.519531 C 15.839844 11.519531 17.664062 12.769531 18.527344 13.535156 C 20.160156 12.863281 21.984375 12.480469 24 12.480469 C 26.015625 12.480469 27.839844 12.863281 29.375 13.535156 C 30.238281 12.769531 32.0625 11.519531 34.65625 11.519531 C 36.097656 12.863281 35.328125 16.320312 34.847656 17.855469 C 35.902344 19.296875 36.480469 20.929688 36.382812 22.65625 C 36.382812 23.121094 36.339844 23.570312 36.277344 24.007812 C 39.636719 23.84375 42.542969 23.976562 44.152344 24.105469 C 44.152344 24.429688 44.121094 24.746094 44.105469 25.066406 C 42.5 24.933594 39.519531 24.796875 36.082031 24.980469 C 35.996094 25.300781 35.890625 25.617188 35.769531 25.921875 C 39.171875 25.964844 42.167969 26.292969 43.976562 26.582031 C 43.933594 26.902344 43.886719 27.21875 43.828125 27.53125 C 41.996094 27.234375 38.867188 26.890625 35.304688 26.875 C 33.707031 29.636719 30.292969 31.441406 24.960938 31.648438 L 24.960938 31.679688 C 27.457031 31.679688 29.761719 35.425781 29.761719 38.015625 L 29.761719 43.199219 C 29.761719 43.988281 30.238281 44.667969 30.921875 44.960938 C 39.714844 42.050781 46.078125 33.757812 46.078125 24 C 46.078125 11.824219 36.175781 1.921875 24 1.921875 C 11.824219 1.921875 1.921875 11.824219 1.921875 24 C 1.921875 33.757812 8.285156 42.050781 17.078125 44.960938 Z M 17.078125 44.960938 "/>
</g>
</svg>
